<?xml version="1.0" encoding="UTF-8"?>
<svg id="Layer_2" data-name="Layer 2" xmlns="http://www.w3.org/2000/svg" viewBox="0 0 659.66 183.36">
  <defs>
    <style>
      .cls-1 {
        fill: #fff;
      }
    </style>
  </defs>
  <g id="logos">
    <g>
      <g>
        <path class="cls-1" d="M442.09,98.27c-11.14,12.28-23.89,27.23-40.89,29.28-17.21,2.07-32.92-9.67-36.01-26.48-.03-.17-.06-.34-.09-.51-.4-2.04-.62-4.17-.62-6.35,0-18.03,14.6-32.67,32.67-32.67,4.93,0,9.58,1.08,13.78,3.06,3.4,1.56,6.49,3.71,9.16,6.35l10.86-11.46c-4.11-3.88-8.79-6.98-13.84-9.22-7.97-3.52-16.81-4.91-25.66-3.83-26.85,3.23-46.02,27.65-42.79,54.5,2.81,23.28,21.47,40.78,43.87,42.96,3.46.31,7.03.28,10.63-.14,16.78-1.97,27.71-11.85,38.93-23.01v20.05h15.67V49.41h-15.67v48.86Z"/>
        <path class="cls-1" d="M535.63,80.09c0-18.74-13.91-30.68-27.42-30.68h-37.86v91.4h15.67v-30.03h22.2c.9,0,1.79-.05,2.68-.15l10.37,30.18h16.97l-12.7-36.94c1.94-1.78,10.09-10.13,10.09-23.78ZM508.21,97.72h-22.2v-35.25h22.2c6.49,0,11.75,7.89,11.75,17.63s-5.26,17.63-11.75,17.63Z"/>
        <path class="cls-1" d="M591.63,48.11c-25.96,0-47,21.04-47,47s21.04,47,47,47,47-21.04,47-47-21.04-47-47-47ZM591.63,126.45c-17.3,0-31.33-14.03-31.33-31.33s14.03-31.34,31.33-31.34,31.34,14.03,31.34,31.34-14.03,31.33-31.34,31.33Z"/>
      </g>
      <g>
        <path class="cls-1" d="M182.91,128.49l.6-.64.07-.07,17.81-18.62,3.63-3.81h-.01l.03-.04c1.02-1.03,1.89-2.2,2.58-3.49l.02-.04c.22-.42.44-.84.62-1.29l.06-.17c.16-.4.32-.8.45-1.22.04-.13.07-.25.1-.38.11-.36.2-.72.28-1.08.05-.23.07-.47.11-.72s.09-.48.12-.73c.05-.53.08-1.08.08-1.63,0-5.44-2.86-10.23-7.14-12.96-2.38-1.51-5.2-2.4-8.22-2.4-3.89,0-7.44,1.47-10.15,3.86-.31.27-.61.55-.9.85v-.03l-3.86,4.04-8.17,8.54-.89.94-7.86,8.21-.67.7-17.3,18.1-.75.78-4.74,4.96-.68.7-2.52,2.64c-.72.56-1.43,1.13-2.17,1.69-1.09.95-2.23,1.86-3.4,2.73-4.85,3.64-10.29,6.58-16.15,8.65-2.01.71-4.09,1.31-6.2,1.81-.56.14-1.13.26-1.7.38-1.98.42-3.98.73-6.02.95-2.15.22-4.34.35-6.55.35-.16,0-.31,0-.46,0-.45,0-.87-.02-1.31-.03-12.47-.36-23.99-4.41-33.44-11.07-.27-.18-.54-.37-.8-.55-2.86-2.08-5.5-4.41-7.93-6.93-.22-.23-.44-.47-.67-.7-9.63-10.35-15.5-24.07-15.5-39.08,0-13.18,4.52-25.36,12.15-35.14,3.2-4.11,6.95-7.79,11.15-10.95.26-.19.51-.4.77-.59,5.65-4.13,12.07-7.29,19-9.29,4.91-1.41,10.08-2.23,15.43-2.36.44,0,.87-.03,1.31-.03.11,0,.2,0,.3,0,13.17,0,25.35,4.14,35.27,11.15.91.64,2.15.5,2.92-.31l17.43-18.22,1.37-1.44c.91-.95.82-2.47-.19-3.32-.76-.63-1.53-1.26-2.31-1.87C132.37,7.22,112.85,0,91.69,0c-9.26,0-18.21,1.39-26.63,3.95-.35.11-.7.21-1.04.32-11.07,3.51-21.24,9.08-30.05,16.23-.25.2-.5.41-.76.62C12.94,37.95,0,63.33,0,91.68c0,24.58,9.73,46.94,25.54,63.42.22.23.45.46.68.7,2.45,2.5,5.05,4.87,7.78,7.08.25.2.5.41.76.61,1.84,1.46,3.74,2.87,5.69,4.18,7.16,4.84,15.04,8.7,23.45,11.38l.04-.05c.34.12.68.24,1.02.35.92.29,1.84.56,2.77.82,2.22.6,4.47,1.12,6.75,1.56.38.08.75.15,1.13.21,3.64.65,7.35,1.07,11.13,1.28.43.03.85.04,1.29.06,1.21.05,2.44.08,3.67.08,23.48,0,44.93-8.88,61.17-23.45l6.52-6.83.67-.7.1-.11.68-.7,1.81-1.9,5.58-5.84,14.62-15.29.07-.07Z"/>
        <path class="cls-1" d="M294.04,28.26c-.22-.23-.45-.46-.68-.7-2.45-2.5-5.05-4.87-7.78-7.08-.25-.2-.5-.41-.76-.61-1.84-1.46-3.74-2.87-5.69-4.18-7.16-4.84-15.04-8.7-23.45-11.38l-.04.05c-.34-.12-.68-.24-1.02-.35-.92-.29-1.84-.56-2.77-.82-2.22-.6-4.47-1.12-6.75-1.56-.38-.08-.75-.15-1.13-.21-3.64-.65-7.35-1.07-11.13-1.28-.43-.03-.85-.04-1.29-.06-1.21-.05-2.44-.08-3.67-.08-23.48,0-44.93,8.88-61.17,23.45l-6.52,6.83-.67.7-.1.11-.68.7-1.81,1.9-5.58,5.84-14.62,15.29-.07.07-.6.64-.07.07-17.81,18.62-5.96,6.31h.01l-.03.04c-1.02,1.03-1.89,2.2-2.58,3.49l-.02.04c-.22.42-.44.84-.62,1.29l-.06.17c-.16.4-.32.8-.45,1.22-.04.13-.07.25-.1.38-.11.36-.2.72-.28,1.08-.05.23-.07.47-.11.72-.05.26-.1.52-.13.79-.05.51-.08,1.04-.08,1.56,0,3.75,1.36,7.19,3.61,9.86h0s.02.02.02.02c.41.48.85.94,1.31,1.37l18.03,18.88,21.31-22.27-7.64-7.94,4.14-4.33.89-.94,7.86-8.21.67-.7,17.3-18.1.75-.78,4.74-4.96.68-.7,2.52-2.64c.72-.56,1.43-1.13,2.17-1.69,1.09-.95,2.23-1.86,3.4-2.73,4.85-3.64,10.29-6.58,16.15-8.65,2.01-.71,4.09-1.31,6.2-1.81.56-.14,1.13-.26,1.7-.38,1.98-.42,3.98-.73,6.02-.95,2.15-.22,4.34-.35,6.55-.35.16,0,.31,0,.46,0,.45,0,.87.02,1.31.03,12.47.36,23.99,4.41,33.44,11.07.27.18.54.37.8.55,2.86,2.08,5.5,4.41,7.93,6.93.22.23.44.47.67.7,9.63,10.35,15.5,24.07,15.5,39.08,0,13.18-4.52,25.36-12.15,35.14-3.2,4.11-6.95,7.79-11.15,10.95-.26.19-.51.4-.77.59-5.65,4.13-12.07,7.29-19,9.29-4.91,1.41-10.08,2.23-15.43,2.36-.44,0-.87.03-1.31.03-.11,0-.2,0-.3,0-13.86,0-26.63-4.59-36.81-12.28l-18.8,19.66-3.03,3.18c1.36,1.18,2.74,2.33,4.16,3.45,15.54,12.09,35.05,19.3,56.21,19.3,9.26,0,18.21-1.39,26.63-3.95.35-.11.7-.21,1.04-.32,11.07-3.51,21.24-9.08,30.05-16.23.25-.2.5-.41.76-.62,20.27-16.82,33.21-42.21,33.21-70.56,0-24.58-9.73-46.94-25.54-63.42Z"/>
      </g>
      <g>
        <path class="cls-1" d="M644.37,38.43v7.88h-1.58v-7.88h-3.94v-1.58h9.46v1.58h-3.94Z"/>
        <path class="cls-1" d="M651.78,39.54v6.78h-1.58v-9.46h1.11l3.62,3.62,3.62-3.62h1.11v9.46h-1.58v-6.78l-3.15,3.15-3.15-3.15Z"/>
      </g>
    </g>
  </g>
</svg>