<?xml version="1.0" encoding="UTF-8"?>
<svg id="Layer_2" data-name="Layer 2" xmlns="http://www.w3.org/2000/svg" xmlns:xlink="http://www.w3.org/1999/xlink" viewBox="0 0 515.06 295.52">
  <defs>
    <style>
      .cls-1 {
        fill: url(#Degradado_sin_nombre_3-2);
      }

      .cls-2 {
        fill: url(#Degradado_sin_nombre_3);
      }
    </style>
    <linearGradient id="Degradado_sin_nombre_3" data-name="Degradado sin nombre 3" x1="168.78" y1="0" x2="168.78" y2="295.52" gradientUnits="userSpaceOnUse">
      <stop offset=".01" stop-color="#33a3a7"/>
      <stop offset=".87" stop-color="#101424"/>
    </linearGradient>
    <linearGradient id="Degradado_sin_nombre_3-2" data-name="Degradado sin nombre 3" x1="344.4" x2="344.4" xlink:href="#Degradado_sin_nombre_3"/>
  </defs>
  <g id="logos">
    <g>
      <path class="cls-2" d="M294.79,207.08l.97-1.03.11-.11,28.71-30.02,5.85-6.13h-.02l.05-.06c1.64-1.65,3.04-3.54,4.15-5.62l.03-.06c.36-.67.7-1.36,1-2.08l.09-.28c.27-.64.52-1.3.72-1.97.06-.2.11-.41.16-.61.17-.58.33-1.15.45-1.75.08-.38.11-.77.17-1.16.06-.39.15-.78.19-1.17.09-.86.14-1.74.14-2.62,0-8.77-4.6-16.48-11.5-20.89-3.84-2.44-8.38-3.87-13.25-3.87-6.28,0-11.99,2.37-16.36,6.23-.5.44-.98.89-1.45,1.37v-.05l-6.21,6.51-13.17,13.77-1.44,1.51-12.66,13.24-1.08,1.12-27.88,29.17-1.2,1.25-7.63,7.99-1.09,1.12-4.06,4.26c-1.16.91-2.31,1.83-3.5,2.72-1.76,1.53-3.59,3-5.48,4.4-7.82,5.87-16.58,10.6-26.02,13.94-3.25,1.14-6.59,2.11-9.99,2.92-.91.22-1.83.42-2.75.61-3.18.67-6.42,1.17-9.71,1.53-3.47.36-6.99.56-10.55.56-.25,0-.5-.02-.73-.02-.72,0-1.41-.03-2.11-.05-20.09-.58-38.67-7.1-53.9-17.84-.44-.3-.87-.59-1.3-.89-4.61-3.36-8.87-7.1-12.78-11.18-.36-.37-.72-.75-1.08-1.12-15.52-16.69-24.98-38.79-24.98-62.99,0-21.24,7.29-40.87,19.57-56.63,5.15-6.62,11.21-12.55,17.97-17.65.42-.31.83-.64,1.25-.95,9.1-6.65,19.45-11.75,30.63-14.97,7.91-2.28,16.25-3.59,24.87-3.81.7-.02,1.4-.05,2.11-.05.17,0,.33-.02.48-.02,21.22,0,40.86,6.68,56.84,17.97,1.46,1.03,3.47.8,4.71-.49l28.09-29.37,2.21-2.32c1.46-1.53,1.32-3.99-.31-5.35-1.23-1.02-2.47-2.03-3.73-3.01C213.34,11.63,181.88,0,147.78,0c-14.92,0-29.35,2.23-42.93,6.37-.56.17-1.12.34-1.67.52-17.84,5.65-34.23,14.63-48.44,26.16-.41.33-.81.66-1.22,1C20.86,61.16,0,102.07,0,147.76c0,39.62,15.69,75.64,41.16,102.21.36.37.73.75,1.09,1.12,3.95,4.03,8.13,7.85,12.53,11.41.41.33.81.66,1.22.98,2.96,2.36,6.02,4.62,9.18,6.74,11.53,7.8,24.24,14.02,37.79,18.34l.06-.08c.55.19,1.09.39,1.64.56,1.48.47,2.97.91,4.46,1.33,3.58.97,7.2,1.81,10.88,2.51.61.12,1.22.23,1.83.34,5.87,1.05,11.85,1.73,17.94,2.06.69.05,1.37.06,2.08.09,1.95.08,3.93.12,5.91.12,37.84,0,72.41-14.31,98.59-37.79l10.51-11.01,1.08-1.12.16-.17,1.09-1.12,2.92-3.06,8.99-9.41,23.57-24.65.11-.11Z"/>
      <path class="cls-1" d="M473.9,45.55c-.36-.37-.73-.75-1.09-1.12-3.95-4.03-8.13-7.85-12.53-11.41-.41-.33-.81-.66-1.22-.98-2.96-2.36-6.02-4.62-9.18-6.74-11.53-7.8-24.24-14.02-37.79-18.34l-.06.08c-.55-.19-1.09-.39-1.64-.56-1.48-.47-2.97-.91-4.46-1.33-3.58-.97-7.2-1.81-10.88-2.51-.61-.12-1.22-.23-1.83-.34-5.87-1.05-11.85-1.73-17.94-2.06-.69-.05-1.37-.06-2.08-.09-1.95-.08-3.93-.12-5.91-.12-37.84,0-72.41,14.31-98.59,37.79l-10.51,11.01-1.08,1.12-.16.17-1.09,1.12-2.92,3.06-8.99,9.41-23.57,24.65-.11.11-.97,1.03-.11.11-28.71,30.02-9.61,10.17h.02l-.05.06c-1.64,1.65-3.04,3.54-4.15,5.62l-.03.06c-.36.67-.7,1.36-1,2.08l-.09.28c-.27.64-.52,1.3-.72,1.97-.06.2-.11.41-.16.61-.17.58-.33,1.15-.45,1.75-.08.37-.11.77-.17,1.16-.08.42-.16.84-.2,1.28-.08.83-.12,1.67-.12,2.51,0,6.05,2.19,11.59,5.81,15.9h0s.03.03.03.03c.66.78,1.36,1.52,2.11,2.21l29.06,30.43,34.34-35.89-12.31-12.8,6.67-6.98,1.44-1.51,12.66-13.24,1.08-1.12,27.88-29.17,1.2-1.25,7.63-7.99,1.09-1.12,4.06-4.26c1.16-.91,2.31-1.83,3.5-2.72,1.76-1.53,3.59-3,5.48-4.4,7.82-5.87,16.58-10.6,26.02-13.94,3.25-1.14,6.59-2.11,9.99-2.92.91-.22,1.83-.42,2.75-.61,3.18-.67,6.42-1.17,9.71-1.53,3.47-.36,6.99-.56,10.55-.56.25,0,.5.02.73.02.72,0,1.41.03,2.11.05,20.09.58,38.67,7.1,53.9,17.84.44.3.87.59,1.3.89,4.61,3.36,8.87,7.1,12.78,11.18.36.37.72.75,1.08,1.12,15.52,16.69,24.98,38.79,24.98,62.99,0,21.24-7.29,40.87-19.57,56.63-5.15,6.62-11.21,12.55-17.97,17.65-.42.31-.83.64-1.25.95-9.1,6.65-19.45,11.75-30.63,14.97-7.91,2.28-16.25,3.59-24.87,3.81-.7.02-1.4.05-2.11.05-.17,0-.33.02-.48.02-22.34,0-42.93-7.4-59.33-19.79l-30.3,31.69-4.89,5.12c2.19,1.9,4.42,3.76,6.71,5.56,25.04,19.48,56.49,31.11,90.6,31.11,14.92,0,29.35-2.23,42.93-6.37.56-.17,1.12-.34,1.67-.52,17.84-5.65,34.23-14.63,48.44-26.16.41-.33.81-.66,1.22-1,32.67-27.11,53.53-68.03,53.53-113.72,0-39.62-15.69-75.64-41.16-102.21Z"/>
    </g>
  </g>
</svg>