<?xml version="1.0" encoding="UTF-8"?>
<svg id="Layer_2" data-name="Layer 2" xmlns="http://www.w3.org/2000/svg" viewBox="0 0 643.56 151.92">
  <defs>
    <style>
      .cls-1 {
        fill: #fff;
      }
    </style>
  </defs>
  <g id="logos">
    <g>
      <g>
        <path class="cls-1" d="M610.4,118.68h-14.91l-18.36-57.1-18.35,57.1h-14.92l25.81-80.31h14.92l25.81,80.31Z"/>
        <path class="cls-1" d="M612.02,118.68V38.37h13.76v80.31h-13.76Z"/>
      </g>
      <g>
        <path class="cls-1" d="M365.47,81.64c-9.1,10.04-19.52,22.25-33.41,23.92-14.06,1.69-26.9-7.9-29.43-21.64l-.07-.42c-.32-1.67-.51-3.41-.51-5.19,0-14.74,11.93-26.69,26.69-26.69,4.03,0,7.83.88,11.26,2.5,2.78,1.27,5.31,3.04,7.48,5.19l8.87-9.36c-3.36-3.17-7.18-5.7-11.31-7.53-6.51-2.87-13.74-4.01-20.97-3.13-21.94,2.64-37.61,22.59-34.96,44.53,2.29,19.02,17.54,33.32,35.84,35.1,2.83.25,5.75.23,8.69-.12,13.71-1.61,22.64-9.68,31.81-18.8v17.82h13.05V41.74h-13.05v39.91Z"/>
        <path class="cls-1" d="M443.36,67.29c0-15.6-11.58-25.55-22.83-25.55h-31.53v76.11h13.05v-25.01h18.48c.75,0,1.49-.04,2.23-.12l8.64,25.13h14.13l-10.57-30.76c1.62-1.48,8.4-8.44,8.4-19.8ZM420.53,81.96h-18.48v-29.35h18.48c5.4,0,9.78,6.57,9.78,14.68s-4.38,14.68-9.78,14.68Z"/>
        <path class="cls-1" d="M489.99,40.65c-21.61,0-39.14,17.52-39.14,39.14s17.52,39.14,39.14,39.14,39.14-17.52,39.14-39.14-17.52-39.14-39.14-39.14ZM489.99,105.88c-14.41,0-26.09-11.68-26.09-26.09s11.68-26.09,26.09-26.09,26.09,11.68,26.09,26.09-11.68,26.09-26.09,26.09Z"/>
      </g>
      <g>
        <path class="cls-1" d="M630.89,31.84v6.53h-1.31v-6.53h-3.27v-1.31h7.84v1.31h-3.27Z"/>
        <path class="cls-1" d="M637.03,32.76v5.61h-1.31v-7.84h.92l3,3,3-3h.92v7.84h-1.31v-5.61l-2.61,2.61-2.61-2.61Z"/>
      </g>
      <g>
        <path class="cls-1" d="M151.55,106.45l.5-.53.06-.06,14.76-15.43,3.01-3.15h0l.02-.03c.84-.85,1.56-1.82,2.13-2.89l.02-.03c.18-.35.36-.7.51-1.07l.05-.14c.14-.33.26-.67.37-1.01.03-.1.06-.21.08-.31.09-.3.17-.59.23-.9.04-.19.06-.39.09-.59s.08-.4.1-.6c.04-.44.07-.89.07-1.35,0-4.51-2.37-8.47-5.91-10.74-1.97-1.25-4.31-1.99-6.81-1.99-3.23,0-6.16,1.22-8.41,3.2-.26.22-.51.46-.75.71v-.02l-3.19,3.35-6.77,7.08-.74.78-6.51,6.81-.55.58-14.33,15-.62.64-3.92,4.11-.56.58-2.09,2.19c-.59.47-1.19.94-1.8,1.4-.91.79-1.85,1.54-2.82,2.26-4.02,3.02-8.52,5.45-13.38,7.17-1.67.59-3.39,1.08-5.14,1.5-.47.11-.94.22-1.41.31-1.64.35-3.3.6-4.99.79-1.78.18-3.6.29-5.42.29-.13,0-.26,0-.38,0-.37,0-.72-.02-1.08-.02-10.33-.3-19.88-3.65-27.71-9.17-.22-.15-.45-.31-.67-.46-2.37-1.73-4.56-3.65-6.57-5.75-.18-.19-.37-.39-.55-.58-7.98-8.58-12.84-19.94-12.84-32.38,0-10.92,3.75-21.01,10.06-29.11,2.65-3.4,5.76-6.45,9.24-9.08.22-.16.43-.33.64-.49,4.68-3.42,10-6.04,15.74-7.7,4.07-1.17,8.35-1.85,12.78-1.96.36,0,.72-.02,1.08-.02.09,0,.17,0,.25,0,10.91,0,21.01,3.43,29.22,9.24.75.53,1.78.41,2.42-.25l14.44-15.1,1.14-1.19c.75-.79.68-2.05-.16-2.75-.63-.53-1.27-1.04-1.92-1.55C109.67,5.98,93.5,0,75.97,0c-7.67,0-15.09,1.15-22.07,3.27-.29.09-.58.18-.86.26-9.17,2.91-17.6,7.52-24.9,13.45-.21.17-.42.34-.63.51C10.72,31.44,0,52.47,0,75.96c0,20.37,8.07,38.89,21.16,52.55.18.19.38.39.56.58,2.03,2.07,4.18,4.04,6.44,5.87.21.17.42.34.63.51,1.52,1.21,3.1,2.38,4.72,3.47,5.93,4.01,12.46,7.21,19.43,9.43l.03-.04c.28.1.56.2.84.29.76.24,1.52.47,2.29.68,1.84.5,3.7.93,5.59,1.29.31.06.63.12.94.18,3.02.54,6.09.89,9.22,1.06.35.02.71.03,1.07.05,1,.04,2.02.06,3.04.06,19.45,0,37.23-7.36,50.68-19.43l5.4-5.66.55-.58.08-.09.56-.58,1.5-1.57,4.62-4.84,12.12-12.67.06-.06Z"/>
        <path class="cls-1" d="M243.62,23.42c-.18-.19-.38-.39-.56-.58-2.03-2.07-4.18-4.04-6.44-5.87-.21-.17-.42-.34-.63-.51-1.52-1.21-3.1-2.38-4.72-3.47-5.93-4.01-12.46-7.21-19.43-9.43l-.03.04c-.28-.1-.56-.2-.84-.29-.76-.24-1.52-.47-2.29-.68-1.84-.5-3.7-.93-5.59-1.29-.31-.06-.63-.12-.94-.18-3.02-.54-6.09-.89-9.22-1.06-.35-.02-.71-.03-1.07-.05-1-.04-2.02-.06-3.04-.06-19.45,0-37.23,7.36-50.68,19.43l-5.4,5.66-.55.58-.08.09-.56.58-1.5,1.57-4.62,4.84-12.12,12.67-.06.06-.5.53-.06.06-14.76,15.43-4.94,5.23h0l-.02.03c-.84.85-1.56,1.82-2.13,2.89l-.02.03c-.18.35-.36.7-.51,1.07l-.05.14c-.14.33-.26.67-.37,1.01-.03.1-.06.21-.08.31-.09.3-.17.59-.23.9-.04.19-.06.39-.09.59-.04.22-.08.43-.1.66-.04.43-.06.86-.06,1.29,0,3.11,1.13,5.96,2.99,8.17h0s.01.02.01.02c.34.4.7.78,1.09,1.14l14.94,15.65,17.65-18.45-6.33-6.58,3.43-3.59.74-.78,6.51-6.81.55-.58,14.33-15,.62-.64,3.92-4.11.56-.58,2.09-2.19c.59-.47,1.19-.94,1.8-1.4.91-.79,1.85-1.54,2.82-2.26,4.02-3.02,8.52-5.45,13.38-7.17,1.67-.59,3.39-1.08,5.14-1.5.47-.11.94-.22,1.41-.31,1.64-.35,3.3-.6,4.99-.79,1.78-.18,3.6-.29,5.42-.29.13,0,.26,0,.38,0,.37,0,.72.02,1.08.02,10.33.3,19.88,3.65,27.71,9.17.22.15.45.31.67.46,2.37,1.73,4.56,3.65,6.57,5.75.18.19.37.39.55.58,7.98,8.58,12.84,19.94,12.84,32.38,0,10.92-3.75,21.01-10.06,29.11-2.65,3.4-5.76,6.45-9.24,9.08-.22.16-.43.33-.64.49-4.68,3.42-10,6.04-15.74,7.7-4.07,1.17-8.35,1.85-12.78,1.96-.36,0-.72.02-1.08.02-.09,0-.17,0-.25,0-11.48,0-22.07-3.8-30.5-10.18l-15.58,16.29-2.51,2.63c1.12.98,2.27,1.93,3.45,2.86,12.87,10.01,29.04,15.99,46.58,15.99,7.67,0,15.09-1.15,22.07-3.27.29-.09.58-.18.86-.26,9.17-2.91,17.6-7.52,24.9-13.45.21-.17.42-.34.63-.51,16.8-13.94,27.52-34.97,27.52-58.46,0-20.37-8.07-38.89-21.16-52.55Z"/>
      </g>
    </g>
  </g>
</svg>